<svg xmlns="http://www.w3.org/2000/svg" xmlns:xlink="http://www.w3.org/1999/xlink" width="500" zoomAndPan="magnify" viewBox="0 0 375 374.999991" height="500" preserveAspectRatio="xMidYMid meet" version="1.0"><defs><g/></defs><g fill="#ffbe98" fill-opacity="1"><g transform="translate(87.120116, 242.999984)"><g><path d="M 99.75 -94.453125 L 92.84375 -94.453125 C 92.195312 -94.453125 91.613281 -94.3125 91.09375 -94.03125 C 90.582031 -93.75 90.070312 -93.222656 89.5625 -92.453125 C 89.050781 -91.691406 88.515625 -90.632812 87.953125 -89.28125 C 87.398438 -87.9375 86.753906 -86.171875 86.015625 -83.984375 L 56.84375 0 L 42.546875 0 L 12.140625 -87.546875 C 11.671875 -88.890625 11.078125 -90.015625 10.359375 -90.921875 C 9.640625 -91.828125 8.875 -92.535156 8.0625 -93.046875 C 7.25 -93.566406 6.421875 -93.929688 5.578125 -94.140625 C 4.742188 -94.347656 3.976562 -94.453125 3.28125 -94.453125 L 0 -94.453125 L 0 -101.984375 L 47.15625 -101.984375 L 47.15625 -94.453125 L 40.59375 -94.453125 C 39.894531 -94.453125 39.21875 -94.367188 38.5625 -94.203125 C 37.914062 -94.035156 37.328125 -93.765625 36.796875 -93.390625 C 36.265625 -93.023438 35.832031 -92.539062 35.5 -91.9375 C 35.175781 -91.332031 35.015625 -90.585938 35.015625 -89.703125 C 35.015625 -88.773438 35.15625 -87.71875 35.4375 -86.53125 C 35.71875 -85.34375 35.992188 -84.351562 36.265625 -83.5625 L 50.859375 -39.546875 C 51.222656 -38.484375 51.601562 -37.226562 52 -35.78125 C 52.394531 -34.34375 52.78125 -32.832031 53.15625 -31.25 C 53.53125 -29.664062 53.867188 -28.09375 54.171875 -26.53125 C 54.472656 -24.976562 54.691406 -23.550781 54.828125 -22.25 C 54.960938 -23.039062 55.203125 -24.117188 55.546875 -25.484375 C 55.898438 -26.859375 56.3125 -28.347656 56.78125 -29.953125 C 57.25 -31.554688 57.722656 -33.160156 58.203125 -34.765625 C 58.691406 -36.378906 59.148438 -37.835938 59.578125 -39.140625 L 74.296875 -82.59375 C 74.472656 -83.101562 74.664062 -83.671875 74.875 -84.296875 C 75.09375 -84.921875 75.28125 -85.554688 75.4375 -86.203125 C 75.601562 -86.859375 75.742188 -87.488281 75.859375 -88.09375 C 75.972656 -88.707031 76.03125 -89.195312 76.03125 -89.5625 C 76.03125 -91.144531 75.503906 -92.351562 74.453125 -93.1875 C 73.410156 -94.03125 72.03125 -94.453125 70.3125 -94.453125 L 62.84375 -94.453125 L 62.84375 -101.984375 L 99.75 -101.984375 Z M 99.75 -94.453125 "/></g></g></g><g fill="#ffbe98" fill-opacity="1"><g transform="translate(186.865098, 242.999984)"><g><path d="M 3.96875 -7.609375 L 9.96875 -7.609375 C 10.945312 -7.609375 11.878906 -7.695312 12.765625 -7.875 C 13.648438 -8.0625 14.425781 -8.445312 15.09375 -9.03125 C 15.769531 -9.613281 16.304688 -10.472656 16.703125 -11.609375 C 17.097656 -12.753906 17.296875 -14.253906 17.296875 -16.109375 L 17.296875 -85.734375 C 17.296875 -87.640625 17.097656 -89.160156 16.703125 -90.296875 C 16.304688 -91.429688 15.769531 -92.300781 15.09375 -92.90625 C 14.425781 -93.519531 13.648438 -93.929688 12.765625 -94.140625 C 11.878906 -94.347656 10.945312 -94.453125 9.96875 -94.453125 L 3.96875 -94.453125 L 3.96875 -101.984375 L 50.015625 -101.984375 C 63.503906 -101.984375 73.394531 -99.726562 79.6875 -95.21875 C 85.988281 -90.707031 89.140625 -84.148438 89.140625 -75.546875 C 89.140625 -71.773438 88.582031 -68.425781 87.46875 -65.5 C 86.351562 -62.570312 84.875 -60.015625 83.03125 -57.828125 C 81.195312 -55.640625 79.117188 -53.789062 76.796875 -52.28125 C 74.472656 -50.769531 72.101562 -49.523438 69.6875 -48.546875 L 86.703125 -19.25 C 87.910156 -17.207031 89.082031 -15.453125 90.21875 -13.984375 C 91.363281 -12.515625 92.503906 -11.300781 93.640625 -10.34375 C 94.785156 -9.394531 95.960938 -8.703125 97.171875 -8.265625 C 98.378906 -7.828125 99.65625 -7.609375 101 -7.609375 L 101.5625 -7.609375 L 101.5625 0 L 96.890625 0 C 92.609375 0 88.875 -0.160156 85.6875 -0.484375 C 82.507812 -0.816406 79.722656 -1.457031 77.328125 -2.40625 C 74.929688 -3.363281 72.859375 -4.675781 71.109375 -6.34375 C 69.367188 -8.019531 67.753906 -10.179688 66.265625 -12.828125 L 49.3125 -44.296875 L 39.828125 -44.296875 L 39.828125 -16.109375 C 39.828125 -14.253906 40.023438 -12.753906 40.421875 -11.609375 C 40.816406 -10.472656 41.351562 -9.613281 42.03125 -9.03125 C 42.707031 -8.445312 43.484375 -8.0625 44.359375 -7.875 C 45.242188 -7.695312 46.175781 -7.609375 47.15625 -7.609375 L 53.296875 -7.609375 L 53.296875 0 L 3.96875 0 Z M 39.828125 -52.59375 L 47.859375 -52.59375 C 51.160156 -52.59375 53.914062 -53.035156 56.125 -53.921875 C 58.332031 -54.804688 60.097656 -56.117188 61.421875 -57.859375 C 62.742188 -59.609375 63.695312 -61.796875 64.28125 -64.421875 C 64.863281 -67.046875 65.15625 -70.101562 65.15625 -73.59375 C 65.15625 -77.21875 64.828125 -80.285156 64.171875 -82.796875 C 63.523438 -85.304688 62.503906 -87.363281 61.109375 -88.96875 C 59.710938 -90.570312 57.894531 -91.734375 55.65625 -92.453125 C 53.425781 -93.179688 50.734375 -93.546875 47.578125 -93.546875 L 39.828125 -93.546875 Z M 39.828125 -52.59375 "/></g></g></g><g fill="#000000" fill-opacity="1"><g transform="translate(87.963244, 203.101935)"><g><path d="M 22.90625 0 L 7.8125 -23.203125 L 7.8125 -4.578125 C 7.8125 -3.953125 7.898438 -3.445312 8.078125 -3.0625 C 8.253906 -2.6875 8.488281 -2.394531 8.78125 -2.1875 C 9.070312 -1.988281 9.421875 -1.851562 9.828125 -1.78125 C 10.234375 -1.71875 10.660156 -1.6875 11.109375 -1.6875 L 11.640625 -1.6875 L 11.640625 0 L 1.53125 0 L 1.53125 -1.6875 L 2.046875 -1.6875 C 2.503906 -1.6875 2.929688 -1.71875 3.328125 -1.78125 C 3.734375 -1.851562 4.085938 -1.988281 4.390625 -2.1875 C 4.691406 -2.394531 4.925781 -2.6875 5.09375 -3.0625 C 5.257812 -3.445312 5.34375 -3.953125 5.34375 -4.578125 L 5.34375 -24.328125 C 5.34375 -24.921875 5.253906 -25.394531 5.078125 -25.75 C 4.898438 -26.113281 4.660156 -26.394531 4.359375 -26.59375 C 4.054688 -26.789062 3.707031 -26.914062 3.3125 -26.96875 C 2.914062 -27.03125 2.492188 -27.0625 2.046875 -27.0625 L 1.53125 -27.0625 L 1.53125 -28.75 L 8.90625 -28.75 L 23.328125 -6.484375 L 23.328125 -24.328125 C 23.328125 -24.921875 23.238281 -25.394531 23.0625 -25.75 C 22.882812 -26.113281 22.644531 -26.394531 22.34375 -26.59375 C 22.039062 -26.789062 21.6875 -26.914062 21.28125 -26.96875 C 20.882812 -27.03125 20.460938 -27.0625 20.015625 -27.0625 L 19.484375 -27.0625 L 19.484375 -28.75 L 29.59375 -28.75 L 29.59375 -27.0625 L 29.09375 -27.0625 C 28.632812 -27.0625 28.203125 -27.03125 27.796875 -26.96875 C 27.398438 -26.90625 27.050781 -26.769531 26.75 -26.5625 C 26.445312 -26.351562 26.207031 -26.054688 26.03125 -25.671875 C 25.863281 -25.296875 25.78125 -24.796875 25.78125 -24.171875 L 25.78125 0 Z M 22.90625 0 "/></g></g></g><g fill="#000000" fill-opacity="1"><g transform="translate(121.11955, 203.101935)"><g><path d="M 27.59375 -14.421875 C 27.59375 -12.203125 27.316406 -10.179688 26.765625 -8.359375 C 26.210938 -6.535156 25.398438 -4.972656 24.328125 -3.671875 C 23.253906 -2.378906 21.929688 -1.378906 20.359375 -0.671875 C 18.785156 0.0351562 16.984375 0.390625 14.953125 0.390625 C 12.804688 0.390625 10.941406 0.0351562 9.359375 -0.671875 C 7.773438 -1.378906 6.457031 -2.378906 5.40625 -3.671875 C 4.351562 -4.972656 3.566406 -6.535156 3.046875 -8.359375 C 2.523438 -10.191406 2.265625 -12.222656 2.265625 -14.453125 C 2.265625 -16.679688 2.523438 -18.703125 3.046875 -20.515625 C 3.566406 -22.335938 4.351562 -23.890625 5.40625 -25.171875 C 6.457031 -26.460938 7.78125 -27.457031 9.375 -28.15625 C 10.976562 -28.851562 12.847656 -29.203125 14.984375 -29.203125 C 17.015625 -29.203125 18.8125 -28.851562 20.375 -28.15625 C 21.9375 -27.457031 23.253906 -26.460938 24.328125 -25.171875 C 25.398438 -23.878906 26.210938 -22.320312 26.765625 -20.5 C 27.316406 -18.6875 27.59375 -16.660156 27.59375 -14.421875 Z M 6.734375 -14.421875 C 6.734375 -12.421875 6.878906 -10.640625 7.171875 -9.078125 C 7.460938 -7.515625 7.9375 -6.191406 8.59375 -5.109375 C 9.25 -4.023438 10.097656 -3.195312 11.140625 -2.625 C 12.179688 -2.050781 13.453125 -1.765625 14.953125 -1.765625 C 16.441406 -1.765625 17.707031 -2.050781 18.75 -2.625 C 19.789062 -3.195312 20.632812 -4.023438 21.28125 -5.109375 C 21.9375 -6.191406 22.40625 -7.515625 22.6875 -9.078125 C 22.976562 -10.640625 23.125 -12.421875 23.125 -14.421875 C 23.125 -16.410156 22.976562 -18.1875 22.6875 -19.75 C 22.40625 -21.320312 21.9375 -22.644531 21.28125 -23.71875 C 20.632812 -24.789062 19.796875 -25.609375 18.765625 -26.171875 C 17.742188 -26.742188 16.484375 -27.03125 14.984375 -27.03125 C 13.492188 -27.03125 12.222656 -26.742188 11.171875 -26.171875 C 10.117188 -25.609375 9.257812 -24.789062 8.59375 -23.71875 C 7.9375 -22.644531 7.460938 -21.320312 7.171875 -19.75 C 6.878906 -18.1875 6.734375 -16.410156 6.734375 -14.421875 Z M 6.734375 -14.421875 "/></g></g></g><g fill="#000000" fill-opacity="1"><g transform="translate(153.430185, 203.101935)"><g><path d="M 14.578125 0.390625 C 12.984375 0.390625 11.554688 0.222656 10.296875 -0.109375 C 9.046875 -0.441406 7.984375 -0.972656 7.109375 -1.703125 C 6.234375 -2.429688 5.566406 -3.367188 5.109375 -4.515625 C 4.648438 -5.660156 4.421875 -7.050781 4.421875 -8.6875 L 4.421875 -24.328125 C 4.421875 -24.921875 4.332031 -25.394531 4.15625 -25.75 C 3.976562 -26.113281 3.738281 -26.394531 3.4375 -26.59375 C 3.132812 -26.789062 2.785156 -26.914062 2.390625 -26.96875 C 1.992188 -27.03125 1.570312 -27.0625 1.125 -27.0625 L 0.609375 -27.0625 L 0.609375 -28.75 L 12.328125 -28.75 L 12.328125 -27.0625 L 11.796875 -27.0625 C 11.347656 -27.0625 10.921875 -27.03125 10.515625 -26.96875 C 10.109375 -26.90625 9.757812 -26.769531 9.46875 -26.5625 C 9.175781 -26.351562 8.941406 -26.054688 8.765625 -25.671875 C 8.585938 -25.296875 8.5 -24.796875 8.5 -24.171875 L 8.5 -8.453125 C 8.5 -7.285156 8.664062 -6.289062 9 -5.46875 C 9.332031 -4.65625 9.796875 -3.992188 10.390625 -3.484375 C 10.992188 -2.972656 11.703125 -2.597656 12.515625 -2.359375 C 13.335938 -2.117188 14.238281 -2 15.21875 -2 C 16.382812 -2 17.390625 -2.15625 18.234375 -2.46875 C 19.085938 -2.789062 19.789062 -3.226562 20.34375 -3.78125 C 20.90625 -4.34375 21.316406 -5.003906 21.578125 -5.765625 C 21.847656 -6.535156 21.984375 -7.378906 21.984375 -8.296875 L 21.984375 -24.328125 C 21.984375 -24.921875 21.894531 -25.394531 21.71875 -25.75 C 21.539062 -26.113281 21.300781 -26.394531 21 -26.59375 C 20.695312 -26.789062 20.347656 -26.914062 19.953125 -26.96875 C 19.554688 -27.03125 19.132812 -27.0625 18.6875 -27.0625 L 18.171875 -27.0625 L 18.171875 -28.75 L 28.28125 -28.75 L 28.28125 -27.0625 L 27.75 -27.0625 C 27.300781 -27.0625 26.875 -27.03125 26.46875 -26.96875 C 26.0625 -26.90625 25.710938 -26.769531 25.421875 -26.5625 C 25.128906 -26.351562 24.894531 -26.054688 24.71875 -25.671875 C 24.539062 -25.296875 24.453125 -24.796875 24.453125 -24.171875 L 24.453125 -8.21875 C 24.453125 -6.882812 24.238281 -5.679688 23.8125 -4.609375 C 23.382812 -3.546875 22.753906 -2.640625 21.921875 -1.890625 C 21.085938 -1.148438 20.050781 -0.582031 18.8125 -0.1875 C 17.582031 0.195312 16.171875 0.390625 14.578125 0.390625 Z M 14.578125 0.390625 "/></g></g></g><g fill="#000000" fill-opacity="1"><g transform="translate(184.718158, 203.101935)"><g><path d="M 22.328125 -4.921875 C 23.003906 -3.835938 23.664062 -3.023438 24.3125 -2.484375 C 24.957031 -1.953125 25.703125 -1.6875 26.546875 -1.6875 L 26.671875 -1.6875 L 26.671875 0 L 26.09375 0 C 24.84375 0 23.8125 -0.046875 23 -0.140625 C 22.195312 -0.234375 21.507812 -0.410156 20.9375 -0.671875 C 20.375 -0.929688 19.894531 -1.296875 19.5 -1.765625 C 19.101562 -2.242188 18.675781 -2.863281 18.21875 -3.625 L 12.765625 -12.6875 L 9.421875 -12.6875 L 9.421875 -4.390625 C 9.421875 -3.796875 9.507812 -3.316406 9.6875 -2.953125 C 9.863281 -2.597656 10.101562 -2.328125 10.40625 -2.140625 C 10.707031 -1.960938 11.054688 -1.84375 11.453125 -1.78125 C 11.859375 -1.71875 12.28125 -1.6875 12.71875 -1.6875 L 13.25 -1.6875 L 13.25 0 L 1.53125 0 L 1.53125 -1.6875 L 2.046875 -1.6875 C 2.492188 -1.6875 2.914062 -1.71875 3.3125 -1.78125 C 3.707031 -1.84375 4.054688 -1.960938 4.359375 -2.140625 C 4.660156 -2.328125 4.898438 -2.597656 5.078125 -2.953125 C 5.253906 -3.316406 5.34375 -3.796875 5.34375 -4.390625 L 5.34375 -24.328125 C 5.34375 -24.921875 5.253906 -25.394531 5.078125 -25.75 C 4.898438 -26.113281 4.660156 -26.394531 4.359375 -26.59375 C 4.054688 -26.789062 3.707031 -26.914062 3.3125 -26.96875 C 2.914062 -27.03125 2.492188 -27.0625 2.046875 -27.0625 L 1.53125 -27.0625 L 1.53125 -28.75 L 12.375 -28.75 C 15.863281 -28.75 18.457031 -28.101562 20.15625 -26.8125 C 21.863281 -25.519531 22.71875 -23.578125 22.71875 -20.984375 C 22.71875 -19.910156 22.539062 -18.96875 22.1875 -18.15625 C 21.84375 -17.351562 21.390625 -16.65625 20.828125 -16.0625 C 20.265625 -15.476562 19.628906 -14.988281 18.921875 -14.59375 C 18.210938 -14.195312 17.503906 -13.882812 16.796875 -13.65625 Z M 9.421875 -14.578125 L 12.25 -14.578125 C 13.4375 -14.578125 14.421875 -14.707031 15.203125 -14.96875 C 15.992188 -15.226562 16.625 -15.617188 17.09375 -16.140625 C 17.5625 -16.671875 17.894531 -17.328125 18.09375 -18.109375 C 18.300781 -18.898438 18.40625 -19.820312 18.40625 -20.875 C 18.40625 -21.945312 18.289062 -22.859375 18.0625 -23.609375 C 17.84375 -24.367188 17.484375 -24.984375 16.984375 -25.453125 C 16.492188 -25.929688 15.847656 -26.28125 15.046875 -26.5 C 14.253906 -26.71875 13.289062 -26.828125 12.15625 -26.828125 L 9.421875 -26.828125 Z M 9.421875 -14.578125 "/></g></g></g><g fill="#000000" fill-opacity="1"><g transform="translate(213.547792, 203.101935)"><g><path d="M 1.53125 0 L 1.53125 -1.6875 L 2.046875 -1.6875 C 2.503906 -1.6875 2.929688 -1.71875 3.328125 -1.78125 C 3.734375 -1.851562 4.085938 -1.988281 4.390625 -2.1875 C 4.691406 -2.394531 4.925781 -2.6875 5.09375 -3.0625 C 5.257812 -3.445312 5.34375 -3.953125 5.34375 -4.578125 L 5.34375 -24.171875 C 5.34375 -24.796875 5.257812 -25.296875 5.09375 -25.671875 C 4.925781 -26.054688 4.691406 -26.351562 4.390625 -26.5625 C 4.085938 -26.769531 3.734375 -26.90625 3.328125 -26.96875 C 2.929688 -27.03125 2.503906 -27.0625 2.046875 -27.0625 L 1.53125 -27.0625 L 1.53125 -28.75 L 13.25 -28.75 L 13.25 -27.0625 L 12.71875 -27.0625 C 12.28125 -27.0625 11.859375 -27.03125 11.453125 -26.96875 C 11.046875 -26.90625 10.691406 -26.769531 10.390625 -26.5625 C 10.097656 -26.351562 9.863281 -26.054688 9.6875 -25.671875 C 9.507812 -25.296875 9.421875 -24.796875 9.421875 -24.171875 L 9.421875 -4.578125 C 9.421875 -3.953125 9.507812 -3.445312 9.6875 -3.0625 C 9.863281 -2.6875 10.097656 -2.394531 10.390625 -2.1875 C 10.691406 -1.988281 11.046875 -1.851562 11.453125 -1.78125 C 11.859375 -1.71875 12.28125 -1.6875 12.71875 -1.6875 L 13.25 -1.6875 L 13.25 0 Z M 1.53125 0 "/></g></g></g><g fill="#000000" fill-opacity="1"><g transform="translate(230.754429, 203.101935)"><g><path d="M 9.953125 0.390625 C 8.640625 0.390625 7.476562 0.253906 6.46875 -0.015625 C 5.46875 -0.296875 4.628906 -0.679688 3.953125 -1.171875 C 3.285156 -1.660156 2.78125 -2.253906 2.4375 -2.953125 C 2.09375 -3.660156 1.921875 -4.429688 1.921875 -5.265625 C 1.921875 -6.078125 2.171875 -6.734375 2.671875 -7.234375 C 3.179688 -7.734375 3.90625 -7.984375 4.84375 -7.984375 C 4.875 -7.148438 5 -6.34375 5.21875 -5.5625 C 5.4375 -4.789062 5.757812 -4.109375 6.1875 -3.515625 C 6.625 -2.929688 7.175781 -2.460938 7.84375 -2.109375 C 8.507812 -1.753906 9.316406 -1.578125 10.265625 -1.578125 C 12.078125 -1.578125 13.488281 -2.007812 14.5 -2.875 C 15.519531 -3.75 16.03125 -5.003906 16.03125 -6.640625 C 16.03125 -7.378906 15.925781 -8.03125 15.71875 -8.59375 C 15.507812 -9.15625 15.160156 -9.675781 14.671875 -10.15625 C 14.179688 -10.632812 13.539062 -11.09375 12.75 -11.53125 C 11.957031 -11.96875 10.972656 -12.429688 9.796875 -12.921875 C 8.546875 -13.429688 7.457031 -13.976562 6.53125 -14.5625 C 5.601562 -15.144531 4.828125 -15.789062 4.203125 -16.5 C 3.585938 -17.21875 3.128906 -18.015625 2.828125 -18.890625 C 2.523438 -19.773438 2.375 -20.769531 2.375 -21.875 C 2.375 -23.03125 2.59375 -24.054688 3.03125 -24.953125 C 3.476562 -25.859375 4.09375 -26.625 4.875 -27.25 C 5.664062 -27.875 6.597656 -28.347656 7.671875 -28.671875 C 8.742188 -29.003906 9.914062 -29.171875 11.1875 -29.171875 C 12.394531 -29.171875 13.460938 -29.046875 14.390625 -28.796875 C 15.328125 -28.546875 16.113281 -28.207031 16.75 -27.78125 C 17.394531 -27.363281 17.882812 -26.882812 18.21875 -26.34375 C 18.550781 -25.800781 18.71875 -25.234375 18.71875 -24.640625 C 18.71875 -23.773438 18.429688 -23.125 17.859375 -22.6875 C 17.296875 -22.25 16.53125 -22.03125 15.5625 -22.03125 C 15.5625 -22.65625 15.484375 -23.269531 15.328125 -23.875 C 15.179688 -24.488281 14.929688 -25.035156 14.578125 -25.515625 C 14.222656 -25.992188 13.753906 -26.382812 13.171875 -26.6875 C 12.597656 -26.988281 11.882812 -27.140625 11.03125 -27.140625 C 10.257812 -27.140625 9.566406 -27.03125 8.953125 -26.8125 C 8.347656 -26.601562 7.832031 -26.296875 7.40625 -25.890625 C 6.988281 -25.492188 6.664062 -25.015625 6.4375 -24.453125 C 6.21875 -23.890625 6.109375 -23.257812 6.109375 -22.5625 C 6.109375 -21.757812 6.210938 -21.050781 6.421875 -20.4375 C 6.640625 -19.832031 6.992188 -19.285156 7.484375 -18.796875 C 7.972656 -18.304688 8.617188 -17.835938 9.421875 -17.390625 C 10.222656 -16.953125 11.207031 -16.5 12.375 -16.03125 C 13.550781 -15.539062 14.601562 -15.023438 15.53125 -14.484375 C 16.457031 -13.953125 17.238281 -13.351562 17.875 -12.6875 C 18.519531 -12.03125 19.007812 -11.289062 19.34375 -10.46875 C 19.6875 -9.65625 19.859375 -8.726562 19.859375 -7.6875 C 19.859375 -6.414062 19.625 -5.273438 19.15625 -4.265625 C 18.695312 -3.265625 18.035156 -2.414062 17.171875 -1.71875 C 16.304688 -1.03125 15.265625 -0.503906 14.046875 -0.140625 C 12.828125 0.210938 11.460938 0.390625 9.953125 0.390625 Z M 9.953125 0.390625 "/></g></g></g><g fill="#000000" fill-opacity="1"><g transform="translate(255.080389, 203.101935)"><g><path d="M 18.6875 0 L 18.6875 -1.6875 L 19.21875 -1.6875 C 19.675781 -1.6875 20.101562 -1.71875 20.5 -1.78125 C 20.90625 -1.851562 21.253906 -1.988281 21.546875 -2.1875 C 21.835938 -2.394531 22.070312 -2.6875 22.25 -3.0625 C 22.425781 -3.445312 22.515625 -3.953125 22.515625 -4.578125 L 22.515625 -14.03125 L 9.421875 -14.03125 L 9.421875 -4.578125 C 9.421875 -3.953125 9.507812 -3.445312 9.6875 -3.0625 C 9.863281 -2.6875 10.097656 -2.394531 10.390625 -2.1875 C 10.691406 -1.988281 11.046875 -1.851562 11.453125 -1.78125 C 11.859375 -1.71875 12.28125 -1.6875 12.71875 -1.6875 L 13.25 -1.6875 L 13.25 0 L 1.53125 0 L 1.53125 -1.6875 L 2.046875 -1.6875 C 2.503906 -1.6875 2.929688 -1.71875 3.328125 -1.78125 C 3.734375 -1.851562 4.085938 -1.988281 4.390625 -2.1875 C 4.691406 -2.394531 4.925781 -2.6875 5.09375 -3.0625 C 5.257812 -3.445312 5.34375 -3.953125 5.34375 -4.578125 L 5.34375 -24.328125 C 5.34375 -24.921875 5.253906 -25.394531 5.078125 -25.75 C 4.898438 -26.113281 4.660156 -26.394531 4.359375 -26.59375 C 4.054688 -26.789062 3.707031 -26.914062 3.3125 -26.96875 C 2.914062 -27.03125 2.492188 -27.0625 2.046875 -27.0625 L 1.53125 -27.0625 L 1.53125 -28.75 L 13.25 -28.75 L 13.25 -27.0625 L 12.71875 -27.0625 C 12.28125 -27.0625 11.859375 -27.03125 11.453125 -26.96875 C 11.046875 -26.90625 10.691406 -26.769531 10.390625 -26.5625 C 10.097656 -26.351562 9.863281 -26.054688 9.6875 -25.671875 C 9.507812 -25.296875 9.421875 -24.796875 9.421875 -24.171875 L 9.421875 -16.03125 L 22.515625 -16.03125 L 22.515625 -24.171875 C 22.515625 -24.796875 22.425781 -25.296875 22.25 -25.671875 C 22.070312 -26.054688 21.835938 -26.351562 21.546875 -26.5625 C 21.253906 -26.769531 20.90625 -26.90625 20.5 -26.96875 C 20.101562 -27.03125 19.675781 -27.0625 19.21875 -27.0625 L 18.6875 -27.0625 L 18.6875 -28.75 L 30.40625 -28.75 L 30.40625 -27.0625 L 29.890625 -27.0625 C 29.429688 -27.0625 29.003906 -27.03125 28.609375 -26.96875 C 28.210938 -26.90625 27.863281 -26.769531 27.5625 -26.5625 C 27.257812 -26.351562 27.019531 -26.054688 26.84375 -25.671875 C 26.675781 -25.296875 26.59375 -24.796875 26.59375 -24.171875 L 26.59375 -4.390625 C 26.59375 -3.796875 26.679688 -3.316406 26.859375 -2.953125 C 27.035156 -2.597656 27.273438 -2.328125 27.578125 -2.140625 C 27.878906 -1.960938 28.226562 -1.84375 28.625 -1.78125 C 29.03125 -1.71875 29.453125 -1.6875 29.890625 -1.6875 L 30.40625 -1.6875 L 30.40625 0 Z M 18.6875 0 "/></g></g></g></svg>